<svg xmlns="http://www.w3.org/2000/svg" viewBox="0 0 100.001 100" width="40"
  height="40">
            <path d="M50 0A50 50 0 1 1 0 50 50.018 50.018 0 0 1 50 0Z" fill="#003371"/>
            <path d="M75.333 24.74a8.077 8.077 0 0 0-11.401 0L44.299 44.313a8.02 8.02 0 0 0 0 11.367l19.633 19.57a8.077 8.077 0 0 0 11.401 0 8.02 8.02 0 0 0 0-11.365L63.296 51.893a2.673 2.673 0 0 1 0-3.795l12.037-11.99a8.02 8.02 0 0 0 0-11.367Z" fill="#04795b"/>
            <path d="M63.929 75.248a8.048 8.048 0 1 0 11.4-11.364L55.696 44.312a8.048 8.048 0 0 0-11.4 11.364Z" fill="#0db50a"/>
            <path d="M55.7 44.312 36.069 24.741a8.05 8.05 0 1 0-11.402 11.366l12.03 11.991a2.674 2.674 0 0 1 0 3.795l-12.03 11.991A8.05 8.05 0 0 0 36.068 75.25l13.927-13.893 5.706-5.678a8.02 8.02 0 0 0 0-11.367Zm13.928-5.848a8.036 8.036 0 1 0-8.06-8.036 8.048 8.048 0 0 0 8.06 8.036Z" fill="#0ae33a"/>
        </svg>