<?xml version="1.0" standalone="no"?>
<!DOCTYPE svg PUBLIC "-//W3C//DTD SVG 20010904//EN"
 "http://www.w3.org/TR/2001/REC-SVG-20010904/DTD/svg10.dtd">
<svg version="1.0" xmlns="http://www.w3.org/2000/svg"
 width="2757.000000pt" height="2757.000000pt" viewBox="0 0 2757.000000 2757.000000"
 preserveAspectRatio="xMidYMid meet">

<g transform="translate(0.000000,2757.000000) scale(0.100000,-0.100000)"
fill="#000000" stroke="none">
<path d="M9022 23265 c-184 -33 -366 -117 -514 -236 -171 -137 -315 -362 -375
-584 l-27 -100 -6 -965 c-6 -944 -7 -967 -28 -1046 -61 -234 -157 -401 -319
-555 -124 -118 -253 -196 -413 -251 -171 -58 -174 -58 -1119 -58 -570 0 -897
-4 -956 -11 -244 -30 -455 -131 -635 -305 -148 -143 -253 -319 -308 -519 l-27
-100 -3 -1870 c-2 -1357 0 -1892 8 -1950 35 -241 178 -501 361 -652 145 -121
308 -202 493 -246 91 -22 96 -22 1271 -22 1318 0 1250 -3 1437 71 402 160 664
504 709 931 8 77 10 554 7 1653 -3 1440 -2 1551 14 1631 95 462 420 789 892
897 65 15 455 17 4331 22 3950 5 4264 7 4321 22 339 94 586 293 734 593 62
124 93 226 110 355 5 44 9 522 10 1170 0 1201 0 1203 -60 1380 -56 168 -130
289 -256 420 -143 148 -319 252 -521 308 l-98 27 -4480 2 c-3674 1 -4493 -1
-4553 -12z"/>
<path d="M12740 15953 c-162 -11 -304 -50 -450 -123 -297 -149 -518 -421 -608
-747 l-27 -98 -3 -1144 c-2 -998 -1 -1155 13 -1234 40 -230 143 -432 308 -604
167 -174 356 -281 592 -336 88 -21 116 -21 1175 -25 744 -2 1115 0 1180 8 274
31 502 141 696 334 177 176 289 393 329 636 22 139 23 2204 0 2353 -36 239
-149 461 -325 637 -200 201 -445 315 -730 340 -102 9 -2026 12 -2150 3z"/>
<path d="M19936 13779 c-103 -15 -208 -48 -312 -99 -307 -149 -530 -429 -607
-764 -21 -90 -21 -110 -27 -1751 -5 -1657 -5 -1660 -27 -1735 -54 -192 -127
-332 -246 -471 -143 -168 -331 -282 -577 -352 l-75 -22 -4260 -5 -4260 -6 -90
-21 c-419 -98 -738 -403 -844 -808 -39 -146 -42 -279 -38 -1405 3 -955 5
-1083 20 -1150 92 -412 368 -722 757 -848 169 -55 -132 -52 4669 -52 4829 0
4508 -4 4687 56 367 123 634 421 731 814 14 57 17 194 23 1060 l6 995 26 98
c108 396 408 673 833 768 99 22 113 23 1065 29 l965 6 96 26 c428 117 749 474
814 905 22 147 22 3669 0 3816 -70 463 -434 830 -904 911 -84 14 -226 16
-1230 15 -625 -1 -1163 -5 -1195 -10z"/>
</g>
</svg>
