<?xml version="1.0" encoding="UTF-8"?>
<svg version="1.1" viewBox="0 0 300 185"
    xmlns="http://www.w3.org/2000/svg">
    <title>WalletConnect</title>
    <desc>Created with Sketch.</desc>
    <g fill="none" fill-rule="evenodd">
        <g fill="#FFFFFF" fill-rule="nonzero">
            <path d="m61.439 36.256c48.911-47.888 128.21-47.888 177.12 0l5.8865 5.7634c2.4456 2.3944 2.4456 6.2765 0 8.6709l-20.137 19.716c-1.2228 1.1972-3.2053 1.1972-4.4281 0l-8.1006-7.9311c-34.122-33.408-89.444-33.408-123.57 0l-8.6751 8.4936c-1.2228 1.1972-3.2053 1.1972-4.4281 0l-20.137-19.716c-2.4456-2.3944-2.4456-6.2765 0-8.6709l6.461-6.3259zm218.77 40.774 17.922 17.547c2.4455 2.3944 2.4456 6.2765 3.1e-5 8.6709l-80.81 79.121c-2.4455 2.3944-6.4106 2.3945-8.8562 6.2e-5l-3.2e-5 -3.2e-5 -57.354-56.155c-0.61139-0.5986-1.6026-0.5986-2.214 0-4e-6 4e-6 -7e-6 8e-6 -1.1e-5 1.1e-5l-57.353 56.155c-2.4455 2.3944-6.4106 2.3945-8.8562 8.7e-5 -1.43e-5 -1.4e-5 -2.96e-5 -2.8e-5 -4.49e-5 -4.4e-5l-80.812-79.122c-2.4456-2.3944-2.4456-6.2765 0-8.6709l17.922-17.547c2.4456-2.3944 6.4106-2.3944 8.8562 0l57.355 56.155c0.61139 0.5986 1.6026 0.5986 2.214 0 9.2e-6 -9e-6 1.74e-5 -1.7e-5 2.65e-5 -2.4e-5l57.352-56.155c2.4455-2.3945 6.4105-2.3946 8.8562-2e-4 3.4e-5 3.36e-5 6.8e-5 6.73e-5 1.01e-4 1.01e-4l57.355 56.155c0.61139 0.5986 1.6026 0.5986 2.214 0l57.354-56.154c2.4456-2.3944 6.4106-2.3944 8.8562 0z"/>
        </g>
    </g>
</svg>
