<svg xmlns="http://www.w3.org/2000/svg" width="400" height="400" viewBox="0 0 400 400"><g fill-rule="evenodd"><path d="M196.5 138.342c-1.65.945-4.778 2.739-6.95 3.988l-8 4.598c-2.228 1.28-5.265 3.032-6.75 3.894a2263.03 2263.03 0 0 1-7.15 4.121c-5.555 3.188-5.47 2.988-2.05 4.802.825.437 2.31 1.269 3.3 1.849.99.579 2.43 1.388 3.2 1.798L177 166a342.284 342.284 0 0 1 7 3.855 420.315 420.315 0 0 0 8 4.396c5.327 2.846 6.055 3.244 6.711 3.674.664.436 1.64.262 2.906-.516.548-.337 2.321-1.308 3.939-2.157a442.491 442.491 0 0 0 4.144-2.196c.66-.36 1.56-.833 2-1.052.44-.22.935-.487 1.1-.595.772-.506 6.71-3.765 10.4-5.708a370.612 370.612 0 0 0 7.9-4.303c2.09-1.179 4.188-2.34 4.663-2.581 1.364-.693 1.144-1.051-1.563-2.546-1.265-.698-2.435-1.357-2.6-1.464a80.89 80.89 0 0 0-1.7-1.01c-.77-.448-1.725-1.014-2.122-1.256a278.81 278.81 0 0 0-3.9-2.258c-7.272-4.156-10.094-5.782-12.178-7.015-1.21-.715-3.91-2.255-6-3.421s-4.2-2.373-4.689-2.683c-1.19-.754-1.092-.78-4.511 1.178m-42.167 30.591c-.073.074-.133 6.448-.133 14.165v14.032l.45.413c.248.227 1.98 1.241 3.85 2.253 3.177 1.719 6.877 3.828 9.2 5.245.55.336 2.887 1.642 5.193 2.903 4.737 2.591 7.75 4.303 9.824 5.582.779.481 1.492.874 1.584.874.092 0 .31.123.483.273.174.15 1.036.656 1.916 1.125 3.409 1.816 4.495 2.432 4.607 2.613.19.308 1.04.215 1.172-.127.066-.174.121-6.554.121-14.178 0-15.866.215-14.235-2.038-15.479-.725-.4-1.98-1.099-2.79-1.554-1.872-1.051-3.162-1.75-6.818-3.695-3.037-1.615-7.695-4.197-9.454-5.24-.55-.326-3.024-1.67-5.498-2.987a351.673 351.673 0 0 1-7.949-4.372c-3.737-2.143-3.527-2.039-3.72-1.846m88.467.991a104.962 104.962 0 0 1-3.8 2.126l-3.5 1.847-4 2.108c-1.32.695-3.03 1.638-3.8 2.096-1.75 1.04-5.07 2.862-8.2 4.5-1.32.692-2.962 1.559-3.65 1.928l-2.6 1.395c-.743.399-1.492.849-1.666 1-.173.152-.379.276-.457.276-.273 0-4.83 2.664-5.077 2.968-.263.325-.387 27.441-.129 28.116.174.451.52.395 1.616-.26a169.74 169.74 0 0 1 3.163-1.801c2.762-1.538 2.699-1.502 5.7-3.28 1.375-.814 3.31-1.912 4.3-2.44 1.404-.748 8.905-4.962 10.5-5.899.165-.097.975-.577 1.8-1.068.825-.491 2.625-1.499 4-2.239 4.219-2.271 7.711-4.285 8.168-4.71l.435-.405-.052-13.641c-.059-15.894.265-14.404-2.751-12.617m.7 42.639c-1.251.792-4.05 2.377-10.3 5.832a320.427 320.427 0 0 0-6.5 3.7c-1.54.91-4.825 2.759-7.3 4.108-2.475 1.35-4.815 2.657-5.2 2.905-.385.248-2.32 1.369-4.3 2.492s-3.712 2.185-3.85 2.359c-.428.543-.357 25.505.073 25.936.29.289.368.291.75.022.235-.165 1.717-1.047 3.293-1.959a555.255 555.255 0 0 0 3.537-2.058c.369-.22 1.869-1.065 3.334-1.877 2.143-1.188 10.952-6.188 14.341-8.139.397-.229 2.027-1.123 3.622-1.987a286.43 286.43 0 0 0 4.8-2.66l2.537-1.452c1.313-.749 2.377-1.447 2.813-1.845l.45-.41v-12.743c0-14.776.19-13.673-2.1-12.224m-89.167.57c-.073.074-.133 5.83-.133 12.793 0 14.256-.153 12.89 1.545 13.798.849.454 7.357 4.074 9.655 5.37.825.465 2.94 1.679 4.7 2.697 1.76 1.018 4.75 2.698 6.644 3.732a265.608 265.608 0 0 1 5.8 3.263 702.31 702.31 0 0 0 5.356 3.101c1.65.944 3.253 1.873 3.563 2.065 1.152.712 1.137.877 1.137-12.581 0-8.09-.07-12.306-.211-12.612-.131-.287-1.157-.984-2.734-1.859-1.389-.77-2.821-1.598-3.183-1.839-.693-.463-5.125-2.962-7.67-4.326-1.267-.679-3.048-1.694-9.802-5.588-.772-.445-.836-.481-5.7-3.182a301.545 301.545 0 0 0-3.7-2.036 22.102 22.102 0 0 1-1.04-.589c-4.245-2.528-4.022-2.412-4.227-2.207m89.747 40.495c-.429.225-.977.535-1.217.687-.241.153-.736.45-1.1.66-.365.21-1.972 1.143-3.571 2.072-1.6.929-4.615 2.616-6.7 3.75-2.086 1.133-4.647 2.574-5.692 3.201-2.433 1.461-5.661 3.306-7.7 4.403-5.127 2.757-10.421 5.817-11.65 6.734l-.65.485v13.766c0 15.955-.19 14.708 2.039 13.362.803-.485 2.046-1.216 2.761-1.626.715-.409 1.624-.941 2.02-1.183.395-.241 2.6-1.51 4.9-2.819 7.385-4.204 8.336-4.753 10.88-6.279a154.422 154.422 0 0 1 3.4-1.996c6.73-3.709 12.859-7.304 13.438-7.883.342-.342.362-1.102.362-13.855 0-15.274.106-14.333-1.52-13.479m-89.747.905c-.183.183-.163 25.913.02 26.186.173.257 4.295 2.753 7.147 4.328 4.435 2.449 6.939 3.885 10.19 5.841a231.214 231.214 0 0 0 6.81 3.912c1.87 1.023 4.435 2.489 5.7 3.258 1.265.769 2.57 1.556 2.9 1.748l2.3 1.339c.935.543 1.908 1.116 2.162 1.272 1.039.637 1.038.65 1.038-13.146 0-8.595-.069-12.799-.215-13.112-.188-.403-1.123-.995-5.157-3.27-3.414-1.924-8.218-4.606-8.986-5.017-1.155-.618-1.764-.967-5.442-3.118a230.947 230.947 0 0 0-5.4-3.051c-2.57-1.393-7.646-4.255-8.96-5.052a122.07 122.07 0 0 0-1.988-1.166c-.687-.395-1.3-.8-1.362-.901-.132-.214-.564-.243-.757-.051" fill="#dc8923"/><path d="M198.745 51.4c-.279.22-.564.4-.633.4-.161 0-5.733 3.162-10.399 5.9-.635.373-3.99 2.332-5.113 2.986-.813.474-3.202 1.801-4.6 2.556-1.451.784-5.019 2.885-6.4 3.768-.495.316-1.17.716-1.5.889-.33.173-.96.523-1.4.778-.44.255-1.115.641-1.5.858-5.575 3.139-8.703 4.933-10.6 6.082-1.265.766-2.435 1.449-2.6 1.518a3.068 3.068 0 0 0-.6.366c-.165.132-1.02.624-1.9 1.094-1.508.806-2.889 1.571-5.785 3.205-.682.385-1.457.858-1.722 1.05-.265.193-.556.35-.646.35-.09 0-.407.166-.705.369a42.418 42.418 0 0 1-3.042 1.887c-5.083 2.817-9.883 5.571-13.755 7.89-.41.245-.97.555-1.245.689a5.444 5.444 0 0 0-.8.477c-.259.203-5.961 3.41-8.3 4.669-.44.236-1.43.824-2.2 1.306-1.485.93-7.255 4.269-9.1 5.267-.605.328-2.45 1.385-4.1 2.35a1248.215 1248.215 0 0 1-13.3 7.678c-5.744 3.271-6.814 3.918-7.02 4.243-.347.548-.223 137.825.126 138.322.168.24 1.225.947 2.35 1.571 2.652 1.472 7.926 4.524 9.897 5.726.851.52 1.751 1.035 2 1.146.249.111.699.372 1 .579.301.207 1.672.987 3.047 1.733 1.375.746 3.881 2.176 5.57 3.177a317.083 317.083 0 0 0 4.312 2.521c.684.385 1.46.857 1.725 1.05.265.192.554.35.642.35.088 0 .495.212.905.472.41.259 1.946 1.137 3.413 1.95 1.467.813 2.997 1.677 3.4 1.921s1.003.583 1.333.755c.33.171 1.635.943 2.9 1.715 1.918 1.171 4.29 2.526 10.246 5.852.36.201 1.374.801 2.254 1.334.88.532 3.22 1.891 5.2 3.019 9.199 5.243 10.636 6.07 11.15 6.414.303.202.816.548 1.142.768.325.22.644.4.707.4.11 0 2.677 1.44 9.101 5.107 1.595.91 3.71 2.155 4.7 2.766 1.817 1.123 3.682 2.173 7.029 3.959 3.465 1.85 3.309 1.928-4.356 2.171-17.255.548-31.322 1.328-41.773 2.316-1.815.171-4.29.392-5.5.49-1.21.098-3.325.316-4.7.483-1.375.167-3.31.391-4.3.498-2.031.22-4.116.504-6.9.94-1.045.164-2.485.382-3.2.484-19.149 2.729-21.521 7.688-5.197 10.868 1.483.289 3.147.623 3.697.742.965.208 2.174.39 7.1 1.067 1.265.174 3.2.449 4.3.611 1.1.162 3.035.391 4.3.508 1.265.118 2.84.296 3.5.396.66.1 2.955.32 5.1.49 2.145.169 4.26.353 4.7.409 6.47.821 35.397 2.079 48 2.088 4.195.003 8.272.1 9.1.216 2.441.342 41.522-.104 51.9-.592 18.223-.857 30.315-1.658 38-2.518 1.43-.16 3.59-.386 4.8-.502a74.652 74.652 0 0 0 3.9-.487 52.941 52.941 0 0 1 3.2-.407c.825-.072 1.889-.216 2.364-.321a36.913 36.913 0 0 1 2.4-.392c2.575-.339 8.896-1.601 11.636-2.324 10.875-2.87 8.061-6.773-6.741-9.352-5.348-.932-6.344-1.09-7.659-1.214a46.954 46.954 0 0 1-2.9-.399 42.64 42.64 0 0 0-3.2-.404c-.88-.07-2.41-.251-3.4-.401-.99-.15-2.7-.33-3.8-.4-1.1-.07-3.08-.249-4.4-.399-1.32-.149-3.21-.326-4.2-.393a665.98 665.98 0 0 1-5.5-.416c-6.229-.495-17.248-1.071-26.6-1.391-15.579-.533-15.685-.548-12.963-1.91.695-.347 2.773-1.499 4.619-2.559a727.345 727.345 0 0 1 4-2.286 61.927 61.927 0 0 0 2.044-1.238c.77-.484 2.243-1.34 3.274-1.902 1.817-.991 7.957-4.491 9.301-5.302.364-.22 1.329-.788 2.144-1.261.815-.474 1.841-1.08 2.281-1.346.44-.267 2.047-1.168 3.571-2.002a208.1 208.1 0 0 0 5.8-3.331c4.481-2.684 8.597-5.041 11.629-6.658.99-.528 1.935-1.068 2.1-1.2.165-.132 1.138-.727 2.163-1.321a273.683 273.683 0 0 0 2.4-1.405 203 203 0 0 1 5.637-3.221c1.25-.673 3.332-1.842 4.8-2.694l2-1.16a71.761 71.761 0 0 0 2.3-1.398c.55-.354 3.295-1.929 6.1-3.501 2.805-1.571 5.955-3.369 7-3.995 3.061-1.836 10.889-6.335 12.011-6.904.384-.195.389-1.039.389-69.316v-69.119l-2.15-1.25a270.542 270.542 0 0 1-3.141-1.852c-.545-.332-2.615-1.51-4.6-2.619-1.985-1.11-3.941-2.204-4.346-2.432a334.464 334.464 0 0 1-3.8-2.233c-3.269-1.94-4.042-2.384-10.263-5.893-2.2-1.241-4.502-2.587-5.116-2.99-.992-.653-3.639-2.174-5.743-3.299-.411-.22-2.076-1.165-3.699-2.1a399.865 399.865 0 0 0-3.498-2.001c-.301-.166-1.447-.85-2.546-1.52a132.07 132.07 0 0 0-4.098-2.376 456.645 456.645 0 0 1-5.449-3.081 356.337 356.337 0 0 0-3.963-2.253c-.339-.183-.767-.462-.952-.62-.185-.158-.831-.559-1.436-.89-3.316-1.813-10.782-6.052-12.6-7.153-2.258-1.367-7.07-4.127-8.7-4.991-.55-.291-1.36-.748-1.8-1.015-.44-.267-1.07-.63-1.4-.807-.779-.416-1.785-1.009-3.342-1.968-1.256-.773-10.989-6.326-11.558-6.594-.165-.077-1.02-.581-1.9-1.12a285.33 285.33 0 0 0-5-2.932c-9.807-5.633-9.384-5.442-10.355-4.679m4.204 21.479a199.89 199.89 0 0 0 3.063 1.752c.339.183.774.475.968.65.193.176.436.319.538.319.103 0 .636.298 1.185.663.548.364 1.627 1.01 2.397 1.434.77.425 1.715.949 2.1 1.166.385.216 1.656.916 2.824 1.556a96.41 96.41 0 0 1 3.1 1.761c.537.329 1.639.986 2.449 1.459.81.474 1.774 1.041 2.142 1.261 1.016.607 6.226 3.563 7.585 4.304.66.359 2.73 1.57 4.6 2.69 1.87 1.12 5.29 3.09 7.6 4.378 2.31 1.289 4.335 2.431 4.5 2.539.165.109.57.331.9.495.33.165 1.41.802 2.4 1.417 1.674 1.04 4.348 2.58 12.4 7.138 1.76.997 3.785 2.186 4.5 2.643.715.457 2.65 1.581 4.3 2.499a533.365 533.365 0 0 1 11.3 6.488 166.59 166.59 0 0 0 3.6 2.073c8.929 4.898 8.707 4.632 5.3 6.347-.55.277-1.36.71-1.8.962-.825.472-2.584 1.418-6.4 3.439-2.968 1.572-3.677 1.971-6.219 3.503-2.197 1.324-3.739 2.174-7.781 4.288-3.578 1.873-4.816 2.547-8.5 4.637-1.925 1.091-4.355 2.422-5.4 2.957-3.578 1.831-4.5 2.325-4.69 2.514-.358.356-1.699.202-2.464-.285-.41-.26-2.321-1.345-4.246-2.409-1.925-1.065-3.635-2.022-3.8-2.128-1.645-1.053-7.58-4.494-10.6-6.146a132.854 132.854 0 0 1-6.234-3.602 203.605 203.605 0 0 0-5.7-3.305l-4.266-2.379c-1.603-.895-5.486-3.192-6-3.55-.43-.299-6.55-3.773-8-4.54-.275-.145-.64-.265-.81-.266-.312-.001-5.395 2.769-8.19 4.463-.825.5-3.345 1.962-5.6 3.248-6.407 3.653-9.383 5.36-9.965 5.714-1.453.885-6.754 3.945-10.205 5.891-4.198 2.367-4.045 2.279-7.777 4.506-4.094 2.443-8.788 4.977-9.22 4.977-.423 0-7.2-3.55-11.533-6.043-2.601-1.496-3.171-1.808-8.4-4.608-6.633-3.551-7.839-4.235-8.787-4.985a9.942 9.942 0 0 0-1.4-.874c-1.483-.747-5.987-3.132-7.713-4.084a89.492 89.492 0 0 0-2-1.083 31.25 31.25 0 0 1-1.23-.684c-.511-.297-1.282-.735-1.713-.974-1.807-1.004-1.742-1.115 1.792-3.077 3.561-1.976 7.397-4.136 8.046-4.528.327-.198.884-.54 1.239-.76.355-.22 2.203-1.292 4.106-2.382 7.432-4.256 11.152-6.404 13.36-7.712a124.46 124.46 0 0 1 3.3-1.899c1.563-.837 9.151-5.196 11.7-6.721a152.206 152.206 0 0 1 4-2.307c2.814-1.543 8.184-4.626 10.08-5.788.978-.6 1.82-1.091 1.869-1.091.049 0 .328-.168.62-.372.292-.205 1.116-.688 1.831-1.074 2.4-1.294 4.587-2.52 6.7-3.754a278.8 278.8 0 0 1 1.9-1.093c.715-.408 1.414-.836 1.552-.951.139-.115.52-.355.846-.532a352.8 352.8 0 0 0 2.848-1.605c3.376-1.92 5.385-3.041 6.054-3.38.33-.168.96-.543 1.4-.834.44-.291 1.7-1.048 2.8-1.683a535.99 535.99 0 0 0 3.7-2.157c4.29-2.533 3.693-2.492 7.149-.486m-1.938 64.285c.489.31 2.599 1.517 4.689 2.683s4.79 2.706 6 3.421c2.084 1.233 4.906 2.859 12.178 7.015a278.81 278.81 0 0 1 3.9 2.258c.397.242 1.352.808 2.122 1.256.77.449 1.535.903 1.7 1.01.165.107 1.335.766 2.6 1.464 2.707 1.495 2.927 1.853 1.563 2.546-.475.241-2.573 1.402-4.663 2.581a370.612 370.612 0 0 1-7.9 4.303c-3.69 1.943-9.628 5.202-10.4 5.708-.165.108-.66.375-1.1.595-.44.219-1.34.692-2 1.052-.66.359-2.525 1.347-4.144 2.196-1.618.849-3.391 1.82-3.939 2.157-1.266.778-2.242.952-2.906.516-.656-.43-1.384-.828-6.711-3.674a420.315 420.315 0 0 1-8-4.396 342.284 342.284 0 0 0-7-3.855l-4.9-2.608c-.77-.41-2.21-1.219-3.2-1.798a107.97 107.97 0 0 0-3.3-1.849c-3.42-1.814-3.505-1.614 2.05-4.802a2263.03 2263.03 0 0 0 7.15-4.121c1.485-.862 4.522-2.614 6.75-3.894l8-4.598c11.48-6.598 10.149-5.998 11.461-5.166m-101.047 1.66c4.751 2.513 5.862 3.11 7.836 4.217 1.155.648 2.235 1.26 2.4 1.36.165.1 1.2.653 2.3 1.228l2.9 1.517c.495.259 1.395.743 2 1.075a198.89 198.89 0 0 0 3 1.593 80.457 80.457 0 0 1 2.9 1.58c.55.326 1.36.774 1.8.997.44.222.98.515 1.2.652l1.1.682c.385.239 1.42.815 2.3 1.28.88.465 1.69.91 1.8.99.11.079 1.55.845 3.2 1.7 3.792 1.966 5.508 2.962 5.952 3.451.503.557.448 111.385-.056 111.702-.228.144-1.184-.307-3.8-1.792-6.338-3.596-9.419-5.35-10.114-5.756l-3.633-2.127a349.002 349.002 0 0 0-5.749-3.282c-3.107-1.725-5.193-2.983-5.8-3.497-.346-.294-1.775-1.153-3.655-2.196a7402.538 7402.538 0 0 1-9.215-5.145c-.442-.246-.945-.649-1.117-.895-.327-.467-.506-109.898-.18-110.225.27-.269.736-.111 2.631.891m202.12-.703c.287.111.316 5.14.316 54.966v54.843l-.45.409c-.379.344-5.145 3.088-8.35 4.808-1.514.812-5.654 3.3-7.117 4.276-.761.508-3.318 2.001-5.683 3.319-2.365 1.318-5.065 2.852-6 3.41-2.275 1.357-7.474 4.345-14.828 8.52-1.507.856-1.372 6.336-1.372-55.558 0-44.055.051-55.5.25-55.742.247-.299 2.183-1.572 2.393-1.572.06 0 .817-.39 1.683-.867.866-.477 2.699-1.459 4.074-2.181a156.96 156.96 0 0 0 3.4-1.83 19.932 19.932 0 0 1 1.338-.709c.241-.107 1.037-.558 1.77-1.003.733-.446 1.365-.81 1.405-.81.04 0 1.178-.616 2.529-1.368a247.148 247.148 0 0 1 5.158-2.773c3.639-1.892 3.796-1.972 4.6-2.338.694-.316 1.25-.626 2.6-1.448.385-.234 1.51-.858 2.5-1.387.99-.528 3.51-1.88 5.6-3.005l3.834-2.063c.018-.01.176.037.35.103m-144.031 32.658a351.673 351.673 0 0 0 7.949 4.372c2.474 1.317 4.948 2.661 5.498 2.987 1.759 1.043 6.417 3.625 9.454 5.24 3.656 1.945 4.946 2.644 6.818 3.695.81.455 2.065 1.154 2.79 1.554 2.253 1.244 2.038-.387 2.038 15.479 0 7.624-.055 14.004-.121 14.178-.132.342-.982.435-1.172.127-.112-.181-1.198-.797-4.607-2.613-.88-.469-1.742-.975-1.916-1.125-.173-.15-.391-.273-.483-.273-.092 0-.805-.393-1.584-.874-2.074-1.279-5.087-2.991-9.824-5.582-2.306-1.261-4.643-2.567-5.193-2.903-2.323-1.417-6.023-3.526-9.2-5.245-1.87-1.012-3.602-2.026-3.85-2.253l-.45-.413v-14.032c0-12.412.044-14.298.334-14.298.037 0 1.621.89 3.519 1.979m87.498 11.762.052 13.641-.435.405c-.457.425-3.949 2.439-8.168 4.71-1.375.74-3.175 1.748-4 2.239-.825.491-1.635.971-1.8 1.068-1.595.937-9.096 5.151-10.5 5.899-.99.528-2.925 1.626-4.3 2.44-3.001 1.778-2.938 1.742-5.7 3.28a169.74 169.74 0 0 0-3.163 1.801c-1.096.655-1.442.711-1.616.26-.258-.675-.134-27.791.129-28.116.247-.304 4.804-2.968 5.077-2.968.078 0 .284-.124.457-.276.174-.151.923-.601 1.666-1l2.6-1.395c.688-.369 2.33-1.236 3.65-1.928 3.13-1.638 6.45-3.46 8.2-4.5.77-.458 2.48-1.401 3.8-2.096a8693.869 8693.869 0 0 0 7.5-3.955c1.045-.55 2.755-1.507 3.8-2.126 3.016-1.787 2.692-3.277 2.751 12.617m-.267 29.38c.284.109.316 1.429.316 12.866v12.743l-.45.41c-.436.398-1.5 1.096-2.813 1.845l-2.537 1.452a286.43 286.43 0 0 1-4.8 2.66 274.426 274.426 0 0 0-3.622 1.987c-3.389 1.951-12.198 6.951-14.341 8.139a210.355 210.355 0 0 0-3.334 1.877c-.369.22-1.96 1.146-3.537 2.058-1.576.912-3.058 1.794-3.293 1.959-.382.269-.46.267-.75-.022-.43-.431-.501-25.393-.073-25.936.138-.174 1.87-1.236 3.85-2.359s3.915-2.244 4.3-2.492c.385-.248 2.725-1.555 5.2-2.905 2.475-1.349 5.76-3.198 7.3-4.108 1.54-.91 4.465-2.575 6.5-3.7 6.25-3.455 9.049-5.04 10.3-5.832 1.292-.817 1.309-.824 1.784-.642m-89.069 2.029c.883.522 1.939 1.148 2.345 1.39.407.243.875.507 1.04.589.165.081 1.83.997 3.7 2.036 4.864 2.701 4.928 2.737 5.7 3.182 6.754 3.894 8.535 4.909 9.802 5.588 2.545 1.364 6.977 3.863 7.67 4.326.362.241 1.794 1.069 3.183 1.839 1.577.875 2.603 1.572 2.734 1.859.141.306.211 4.522.211 12.612 0 13.458.015 13.293-1.137 12.581-.31-.192-1.913-1.121-3.563-2.065a702.31 702.31 0 0 1-5.356-3.101 265.608 265.608 0 0 0-5.8-3.263 374.542 374.542 0 0 1-6.644-3.732 669.733 669.733 0 0 0-4.7-2.697 1273.532 1273.532 0 0 0-9.655-5.37c-1.698-.908-1.545.458-1.545-13.798 0-11.234.044-12.926.338-12.926.039 0 .794.428 1.677.95m89.385 53.157c0 12.753-.02 13.513-.362 13.855-.579.579-6.708 4.174-13.438 7.883-.495.272-2.025 1.17-3.4 1.996-2.544 1.526-3.495 2.075-10.88 6.279a402.667 402.667 0 0 0-4.9 2.819c-.396.242-1.305.774-2.02 1.183-.715.41-1.958 1.141-2.761 1.626-2.229 1.346-2.039 2.593-2.039-13.362V275.62l.65-.485c1.229-.917 6.523-3.977 11.65-6.734 2.039-1.097 5.267-2.942 7.7-4.403 1.045-.627 3.606-2.068 5.692-3.201 2.085-1.134 5.1-2.821 6.7-3.75 1.599-.929 3.206-1.862 3.571-2.072.364-.21.859-.507 1.1-.66 2.988-1.895 2.737-3.071 2.737 12.792m-90.51-12.523c.062.101.675.506 1.362.901.686.394 1.581.919 1.988 1.166 1.314.797 6.39 3.659 8.96 5.052 1.375.745 3.805 2.118 5.4 3.051 3.678 2.151 4.287 2.5 5.442 3.118.768.411 5.572 3.093 8.986 5.017 4.034 2.275 4.969 2.867 5.157 3.27.146.313.215 4.517.215 13.112 0 13.796.001 13.783-1.038 13.146-.254-.156-1.227-.729-2.162-1.272l-2.3-1.339c-.33-.192-1.635-.979-2.9-1.748s-3.83-2.235-5.7-3.258a231.214 231.214 0 0 1-6.81-3.912c-3.251-1.956-5.755-3.392-10.19-5.841-2.852-1.575-6.974-4.071-7.147-4.328-.183-.273-.203-26.003-.02-26.186.193-.192.625-.163.757.051" fill="#1c1d2c"/><path d="M188.2 9.185c-.275.084-1.49.213-2.7.288-10.419.648-24.513 3.081-36 6.216C74.376 36.187 18.44 101.559 10.106 178.6c-.957 8.845-.989 9.523-.989 21.5s.032 12.655.989 21.5c9.696 89.632 83.811 161.909 173.194 168.9 2.2.172 4.384.4 4.853.506 1.13.257 22.764.257 23.894 0 .469-.106 2.653-.334 4.853-.506 91.075-7.123 166.516-82.523 173.594-173.5.175-2.255.406-4.484.512-4.953.257-1.13.257-22.764 0-23.894-.106-.469-.337-2.698-.512-4.953C383.388 91.868 307.221 16.134 215.9 9.6c-1.76-.126-3.525-.312-3.923-.414-.86-.221-23.047-.221-23.777-.001m14.755 43.378c5.647 3.215 9.593 5.499 11.145 6.448.88.539 1.735 1.043 1.9 1.12.569.268 10.302 5.821 11.558 6.594 1.557.959 2.563 1.552 3.342 1.968.33.177.96.54 1.4.807.44.267 1.25.724 1.8 1.015 1.63.864 6.442 3.624 8.7 4.991 1.818 1.101 9.284 5.34 12.6 7.153.605.331 1.251.732 1.436.89.185.158.613.437.952.62.338.182 2.122 1.196 3.963 2.253a456.645 456.645 0 0 0 5.449 3.081 132.07 132.07 0 0 1 4.098 2.376c1.099.67 2.245 1.354 2.546 1.52.301.165 1.876 1.066 3.498 2.001 1.623.935 3.288 1.88 3.699 2.1 2.104 1.125 4.751 2.646 5.743 3.299.614.403 2.916 1.749 5.116 2.99 6.221 3.509 6.994 3.953 10.263 5.893 1.684 1 3.394 2.005 3.8 2.233.405.228 2.361 1.322 4.346 2.432 1.985 1.109 4.055 2.287 4.6 2.619.545.331 1.959 1.164 3.141 1.852l2.15 1.25v69.119c0 68.277-.005 69.121-.389 69.316-1.122.569-8.95 5.068-12.011 6.904-1.045.626-4.195 2.424-7 3.995-2.805 1.572-5.55 3.147-6.1 3.501-.55.354-1.585.983-2.3 1.398l-2 1.16c-1.468.852-3.55 2.021-4.8 2.694a203 203 0 0 0-5.637 3.221c-.295.178-1.375.81-2.4 1.405-1.025.594-1.998 1.189-2.163 1.321-.165.132-1.11.672-2.1 1.2-3.032 1.617-7.148 3.974-11.629 6.658a208.1 208.1 0 0 1-5.8 3.331c-1.524.834-3.131 1.735-3.571 2.002-.44.266-1.466.872-2.281 1.346-.815.473-1.78 1.041-2.144 1.261-1.344.811-7.484 4.311-9.301 5.302a74.872 74.872 0 0 0-3.274 1.902c-.77.484-1.69 1.041-2.044 1.238-.354.197-2.154 1.226-4 2.286s-3.924 2.212-4.619 2.559c-2.722 1.362-2.616 1.377 12.963 1.91 9.352.32 20.371.896 26.6 1.391 2.035.161 4.51.349 5.5.416.99.067 2.88.244 4.2.393 1.32.15 3.3.329 4.4.399 1.1.07 2.81.25 3.8.4.99.15 2.52.331 3.4.401.88.07 2.32.252 3.2.404.88.152 2.185.331 2.9.399 4.156.393 13.146 2.184 16.2 3.226 6.913 2.36 6.21 5.226-1.8 7.34-2.74.723-9.061 1.985-11.636 2.324-.845.111-1.925.288-2.4.392-.475.105-1.539.249-2.364.321-.825.072-2.265.255-3.2.407-.935.151-2.69.371-3.9.487-1.21.116-3.37.342-4.8.502-7.685.86-19.777 1.661-38 2.518-10.378.488-49.459.934-51.9.592-.828-.116-4.905-.213-9.1-.216-12.603-.009-41.53-1.267-48-2.088-.44-.056-2.555-.24-4.7-.409-2.145-.17-4.44-.39-5.1-.49-.66-.1-2.235-.278-3.5-.396a97.512 97.512 0 0 1-4.3-.508c-1.1-.162-3.035-.437-4.3-.611-4.926-.677-6.135-.859-7.1-1.067a270.17 270.17 0 0 0-3.697-.742c-16.324-3.18-13.952-8.139 5.197-10.868.715-.102 2.155-.32 3.2-.484 2.784-.436 4.869-.72 6.9-.94.99-.107 2.925-.331 4.3-.498 1.375-.167 3.49-.385 4.7-.483 1.21-.098 3.685-.319 5.5-.49 10.451-.988 24.518-1.768 41.773-2.316 7.665-.243 7.821-.321 4.356-2.171-3.347-1.786-5.212-2.836-7.029-3.959-.99-.611-3.105-1.856-4.7-2.766-6.424-3.667-8.991-5.107-9.101-5.107-.063 0-.382-.18-.707-.4-1.764-1.192-1.025-.76-12.292-7.182a318.909 318.909 0 0 1-5.2-3.019c-.88-.533-1.894-1.133-2.254-1.334-5.956-3.326-8.328-4.681-10.246-5.852-1.265-.772-2.57-1.544-2.9-1.715-.33-.172-.93-.511-1.333-.755a171.813 171.813 0 0 0-3.4-1.921c-1.467-.813-3.003-1.691-3.413-1.95-.41-.26-.817-.472-.905-.472-.088 0-.377-.158-.642-.35-.265-.193-1.041-.665-1.725-1.05a317.083 317.083 0 0 1-4.312-2.521 207.445 207.445 0 0 0-5.57-3.177c-1.375-.746-2.746-1.526-3.047-1.733a7.787 7.787 0 0 0-1-.579c-.249-.111-1.149-.626-2-1.146-1.971-1.202-7.245-4.254-9.897-5.726-1.125-.624-2.182-1.331-2.35-1.571-.349-.497-.473-137.774-.126-138.322.206-.325 1.276-.972 7.02-4.243 4.574-2.604 8.431-4.831 13.3-7.678 1.65-.965 3.495-2.022 4.1-2.35 1.845-.998 7.615-4.337 9.1-5.267.77-.482 1.76-1.07 2.2-1.306 2.339-1.259 8.041-4.466 8.3-4.669.165-.129.525-.344.8-.477.275-.134.835-.444 1.245-.689 3.872-2.319 8.672-5.073 13.755-7.89a42.418 42.418 0 0 0 3.042-1.887c.298-.203.615-.369.705-.369.09 0 .381-.157.646-.35.265-.192 1.04-.665 1.722-1.05 2.896-1.634 4.277-2.399 5.785-3.205.88-.47 1.735-.962 1.9-1.094.165-.132.435-.297.6-.366.165-.069 1.335-.752 2.6-1.518 1.897-1.149 5.025-2.943 10.6-6.082.385-.217 1.06-.603 1.5-.858.44-.255 1.07-.605 1.4-.778.33-.173 1.005-.573 1.5-.889 1.381-.883 4.949-2.984 6.4-3.768a237.664 237.664 0 0 0 4.6-2.556c1.123-.654 4.478-2.613 5.113-2.986 4.666-2.738 10.238-5.9 10.399-5.9.069 0 .354-.18.633-.4.805-.633 1.293-.498 4.21 1.163m-4.357 19.219a85.79 85.79 0 0 0-2.798 1.583c-.935.552-2.6 1.522-3.7 2.157s-2.36 1.392-2.8 1.683c-.44.291-1.07.666-1.4.834-.669.339-2.678 1.46-6.054 3.38a352.8 352.8 0 0 1-2.848 1.605c-.326.177-.707.417-.846.532-.138.115-.837.543-1.552.951-.715.408-1.57.9-1.9 1.093-2.113 1.234-4.3 2.46-6.7 3.754-.715.386-1.539.869-1.831 1.074-.292.204-.571.372-.62.372-.049 0-.891.491-1.869 1.091-1.896 1.162-7.266 4.245-10.08 5.788-.935.512-2.735 1.551-4 2.307-2.549 1.525-10.137 5.884-11.7 6.721a124.46 124.46 0 0 0-3.3 1.899c-2.208 1.308-5.928 3.456-13.36 7.712a285.355 285.355 0 0 0-4.106 2.382c-.355.22-.912.562-1.239.76-.649.392-4.485 2.552-8.046 4.528-3.534 1.962-3.599 2.073-1.792 3.077.431.239 1.202.677 1.713.974a31.25 31.25 0 0 0 1.23.684c.165.079 1.065.567 2 1.083 1.726.952 6.23 3.337 7.713 4.084a9.942 9.942 0 0 1 1.4.874c.948.75 2.154 1.434 8.787 4.985 5.229 2.8 5.799 3.112 8.4 4.608 4.333 2.493 11.11 6.043 11.533 6.043.432 0 5.126-2.534 9.22-4.977 3.732-2.227 3.579-2.139 7.777-4.506 3.451-1.946 8.752-5.006 10.205-5.891.582-.354 3.558-2.061 9.965-5.714 2.255-1.286 4.775-2.748 5.6-3.248 2.795-1.694 7.878-4.464 8.19-4.463.17.001.535.121.81.266 1.45.767 7.57 4.241 8 4.54.514.358 4.397 2.655 6 3.55l4.266 2.379a203.605 203.605 0 0 1 5.7 3.305 132.854 132.854 0 0 0 6.234 3.602c3.02 1.652 8.955 5.093 10.6 6.146.165.106 1.875 1.063 3.8 2.128 1.925 1.064 3.836 2.149 4.246 2.409.765.487 2.106.641 2.464.285.19-.189 1.112-.683 4.69-2.514 1.045-.535 3.475-1.866 5.4-2.957 3.684-2.09 4.922-2.764 8.5-4.637 4.042-2.114 5.584-2.964 7.781-4.288 2.542-1.532 3.251-1.931 6.219-3.503 3.816-2.021 5.575-2.967 6.4-3.439.44-.252 1.25-.685 1.8-.962 3.407-1.715 3.629-1.449-5.3-6.347a166.59 166.59 0 0 1-3.6-2.073 533.365 533.365 0 0 0-11.3-6.488c-1.65-.918-3.585-2.042-4.3-2.499-.715-.457-2.74-1.646-4.5-2.643-8.052-4.558-10.726-6.098-12.4-7.138-.99-.615-2.07-1.252-2.4-1.417-.33-.164-.735-.386-.9-.495-.165-.108-2.19-1.25-4.5-2.539a345.727 345.727 0 0 1-7.6-4.378c-1.87-1.12-3.94-2.331-4.6-2.69-1.359-.741-6.569-3.697-7.585-4.304-.368-.22-1.332-.787-2.142-1.261-.81-.473-1.912-1.13-2.449-1.459a96.41 96.41 0 0 0-3.1-1.761c-1.168-.64-2.439-1.34-2.824-1.556a374.34 374.34 0 0 0-2.1-1.166 41.487 41.487 0 0 1-2.397-1.434c-.549-.365-1.082-.663-1.185-.663-.102 0-.345-.143-.538-.319-.194-.175-.629-.467-.968-.65a199.89 199.89 0 0 1-3.063-1.752c-3.133-1.818-3.03-1.792-4.351-1.097m2.007 17.767c.605.428 1.381.881 2.695 1.576.55.291 1.254.742 1.565 1.002.311.26.677.473.813.473.136 0 .851.405 1.589.899a36.051 36.051 0 0 0 2.687 1.61c3.562 1.879 4.399 2.352 10.066 5.691a712.182 712.182 0 0 0 4.152 2.433 360.72 360.72 0 0 0 3.728 2.118c.33.183 1.102.624 1.715.981.614.357 1.559.886 2.1 1.175.542.29 1.302.721 1.69.96.388.238 1.004.613 1.369.833.365.22 1.128.688 1.695 1.04.567.351 1.436.856 1.931 1.121.495.265 1.845 1.02 3 1.679a240.58 240.58 0 0 0 3.4 1.902c1.482.804 6.31 3.621 8.1 4.726.66.408 2.415 1.405 3.9 2.216 1.485.811 3.522 1.957 4.526 2.545 1.004.589 1.916 1.071 2.027 1.071.111 0 .343.217.517.483.174.265.584.541.912.613.327.072.938.378 1.356.68.419.302 1.032.689 1.362.859.33.171 1.68.92 3 1.664 5.874 3.315 6.659 3.747 7.65 4.208.578.268 1.05.53 1.05.582 0 .16-2.543 1.572-6.4 3.554-4.38 2.251-6.389 3.329-6.8 3.647a6.096 6.096 0 0 1-.8.485c-.571.287-1.197.641-2.9 1.638-.66.387-2.685 1.456-4.5 2.376-1.815.92-4.077 2.109-5.027 2.642-2.109 1.183-1.474 1.273-4.94-.705a192.352 192.352 0 0 0-4.933-2.718c-1.954-1.02-2.433-1.299-5.1-2.968-1.988-1.244-7.285-4.286-9.299-5.341-.99-.518-2.025-1.094-2.3-1.28a10.286 10.286 0 0 0-1.001-.584c-.275-.135-1.13-.643-1.9-1.128-1.823-1.15-7.454-4.364-10-5.708-1.1-.581-2.45-1.344-3-1.696l-2.298-1.472c-.714-.457-1.401-.831-1.526-.831s-.34-.136-.478-.302c-.138-.167-.621-.481-1.074-.699-.453-.219-1.634-.896-2.624-1.506-2.422-1.493-2.62-1.468-6.41.807-.366.22-1.324.787-2.128 1.26s-2.092 1.257-2.862 1.742c-1.678 1.057-2.248 1.387-3.923 2.275-2.545 1.349-10.08 5.681-10.69 6.146-.343.262-.692.477-.775.477-.083 0-.389.169-.681.376-.292.206-2.427 1.414-4.745 2.683-2.317 1.27-5.557 3.122-7.2 4.118-3.043 1.844-4.41 2.627-10.598 6.073l-3.502 1.95-1.543-.871c-2.678-1.511-3.681-2.045-6.043-3.215-1.265-.627-2.435-1.223-2.6-1.325a151.6 151.6 0 0 0-1.769-1.037 375.623 375.623 0 0 1-2.144-1.252 150.601 150.601 0 0 0-8.087-4.459c-6.313-3.256-6.38-3.306-5.065-3.741.332-.11.73-.303.885-.428.154-.125 1.225-.745 2.38-1.378 3.267-1.79 7.983-4.506 9.089-5.234.551-.363 1.06-.66 1.131-.66.071 0 .973-.509 2.004-1.131a94.931 94.931 0 0 1 3.176-1.832c2.319-1.249 6.703-3.788 9.433-5.463 1.467-.899 3.207-1.894 3.867-2.211.66-.316 1.65-.854 2.2-1.196.55-.341 1.54-.915 2.2-1.274.66-.36 1.74-.974 2.4-1.365.66-.39 1.65-.951 2.2-1.245.55-.295 1.36-.782 1.8-1.082.791-.541 4.321-2.615 4.9-2.88.165-.075.75-.405 1.3-.733.55-.329 1.45-.823 2-1.099s1.585-.859 2.3-1.296c.715-.438 1.486-.876 1.713-.975.359-.156 1.139-.645 2.311-1.447.179-.123.83-.503 1.447-.847a468.33 468.33 0 0 0 3.276-1.85 663.003 663.003 0 0 1 4.653-2.617c1.375-.766 3.76-2.143 5.3-3.062 1.54-.918 3.352-1.968 4.026-2.333.674-.365 1.338-.798 1.475-.963.331-.399.998-.378 1.604.05M97.333 137.933c-.326.327-.147 109.758.18 110.225.172.246.675.649 1.117.895l1.354.755c.76.427 7.192 4.018 7.861 4.39 1.88 1.043 3.309 1.902 3.655 2.196.607.514 2.693 1.772 5.8 3.497 1.54.855 4.127 2.332 5.749 3.282l3.633 2.127c.695.406 3.776 2.16 10.114 5.756 2.616 1.485 3.572 1.936 3.8 1.792.504-.317.559-111.145.056-111.702-.444-.489-2.16-1.485-5.952-3.451-1.65-.855-3.09-1.621-3.2-1.7-.11-.08-.92-.525-1.8-.99-.88-.465-1.915-1.041-2.3-1.28l-1.1-.682c-.22-.137-.76-.43-1.2-.652-.44-.223-1.25-.671-1.8-.997a80.457 80.457 0 0 0-2.9-1.58 198.89 198.89 0 0 1-3-1.593c-.605-.332-1.505-.816-2-1.075l-2.9-1.517a96.46 96.46 0 0 1-2.3-1.228c-.75-.456-4.682-2.634-6.4-3.545-6.234-3.308-6.129-3.26-6.467-2.923m200.567 2.148c-2.09 1.125-4.61 2.477-5.6 3.005a74.267 74.267 0 0 0-2.5 1.387c-1.35.822-1.906 1.132-2.6 1.448-.804.366-.961.446-4.6 2.338-1.485.772-3.806 2.02-5.158 2.773-1.351.752-2.489 1.368-2.529 1.368-.04 0-.672.364-1.405.81-.733.445-1.529.896-1.77 1.003-.241.106-.843.426-1.338.709a156.96 156.96 0 0 1-3.4 1.83 291.232 291.232 0 0 0-4.074 2.181c-.866.477-1.623.867-1.683.867-.21 0-2.146 1.273-2.393 1.572-.199.242-.25 11.687-.25 55.742 0 61.894-.135 56.414 1.372 55.558 7.354-4.175 12.553-7.163 14.828-8.52.935-.558 3.635-2.092 6-3.41s4.922-2.811 5.683-3.319c1.463-.976 5.603-3.464 7.117-4.276 3.205-1.72 7.971-4.464 8.35-4.808l.45-.409v-54.843c0-56.921.018-55.436-.666-55.069l-3.834 2.063m-11.101 61.602c-.002 51.912-.021 54.874-.35 55.156-.192.164-1.159.729-2.149 1.256-2.716 1.444-6.576 3.648-8.662 4.946-1.024.638-1.933 1.159-2.019 1.159-.086 0-.318.178-.514.395-.197.217-.548.454-.781.526-.233.073-1.342.66-2.463 1.305-1.122.646-2.096 1.174-2.166 1.174-.069 0-.771.38-1.56.844-.789.464-1.68.982-1.98 1.15-.755.424-3.585 2.16-3.978 2.44-.177.126-.47.173-.65.104-.349-.134-.522-110.153-.174-110.647.081-.115 1.182-.73 2.447-1.367 1.265-.638 2.75-1.405 3.3-1.706.55-.3 1.81-.978 2.8-1.507.99-.529 1.89-1.03 2-1.115.238-.182 1.316-.79 3.1-1.748.715-.384 1.39-.768 1.5-.852.11-.084 1.595-.876 3.3-1.759 1.705-.884 3.505-1.838 4-2.12.495-.283 1.26-.7 1.7-.928 1.163-.601 1.935-1.046 2.483-1.432.265-.187.558-.294.65-.236.093.057.167 24.79.166 54.962m-170.908-53.688c1.139.657 2.957 1.665 4.04 2.239 1.083.574 2.779 1.474 3.769 2.001.99.526 2.025 1.067 2.3 1.202.275.135.972.541 1.549.901.577.361 1.342.793 1.7.96.358.168 1.011.524 1.451.791.993.603 2.876 1.647 5.1 2.828.935.496 2.353 1.26 3.15 1.698l1.451.796-.051 55.344-.05 55.345-.442-.046c-.243-.026-1.053-.433-1.8-.905-.747-.473-1.583-.971-1.858-1.107-.275-.136-.95-.528-1.5-.871-.55-.343-2.215-1.255-3.7-2.025-1.485-.771-2.835-1.518-3-1.66a3.894 3.894 0 0 0-.8-.476c-.275-.12-.881-.464-1.346-.764-.465-.3-2.04-1.264-3.5-2.141-2.529-1.519-3.906-2.297-7.054-3.986-.77-.413-1.603-.974-1.85-1.246l-.45-.495V146.8h.411c.225 0 1.342.538 2.48 1.195" fill="#146bab"/><path d="M198.722 90.506c-.648.269-1.458.698-1.8.954a6.933 6.933 0 0 1-1.272.727c-.357.144-.65.341-.65.437 0 .097-.091.176-.203.176-.215 0-1.509.727-3.497 1.965a137.378 137.378 0 0 1-4.483 2.645c-.307.171-1.006.598-1.555.95-.548.352-1.063.64-1.145.64-.081 0-.764.36-1.517.8-.753.44-1.501.8-1.66.8-.16 0-.407.14-.55.312-.142.171-.535.441-.874.599a13.53 13.53 0 0 0-1.216.664c-.33.207-1.109.68-1.73 1.051-.622.371-1.567.935-2.1 1.255-3.058 1.831-6.299 3.719-6.383 3.719-.149 0-6.966 3.908-8.952 5.133-.971.599-1.961 1.173-2.2 1.277-.239.104-1.007.549-1.705.99-.699.44-1.308.8-1.354.8-.046 0-.44.225-.876.5s-.912.5-1.058.5c-.147 0-.46.18-.696.4-.236.22-.556.4-.711.4-.154 0-.496.164-.758.365-.262.201-1.315.854-2.339 1.45-2.315 1.348-3.066 1.799-3.667 2.199-1.061.708-2.61 1.586-2.798 1.586-.11 0-.486.216-.836.481-.351.265-1.357.852-2.237 1.305-.88.453-1.735.905-1.9 1.005a5.457 5.457 0 0 1-.6.304c-.31.128-.685.346-3.363 1.955-.87.523-1.643.95-1.718.95-.074 0-.379.167-.677.371-1.374.942-2.588 1.683-4.762 2.906-3.102 1.746-3.503 2.188-2.205 2.431.461.087.667.232.65.46-.02.264.128.32.718.274.571-.044.803.037.999.35.14.224.453.408.696.408.243 0 .684.225.981.5.297.275.647.5.78.5.132 0 .447.18.701.4.404.35.871.504 1.062.35.034-.028.356.197.715.5.36.303.83.55 1.045.55.215 0 .439.127.499.282.059.155.371.391.693.524.322.133.586.315.586.403 0 .088.315.264.7.391.385.127.7.359.7.516 0 .176.209.285.55.287.653.004.932.169 1.113.66.1.269.302.347.786.3.546-.053.661.01.715.387a.692.692 0 0 0 .535.568c.26.065.522.249.583.408.078.201.366.276.938.242.588-.035.898.049 1.075.292.137.187.397.34.577.34.18 0 .495.167.699.371.204.204.626.435.937.513.311.078.826.361 1.144.629.318.268.775.487 1.015.487.24 0 .549.18.687.4.137.22.385.4.55.4.165 0 .454.18.642.4.189.22.507.4.708.4.201 0 .581.248.846.55l.48.55.518-.55c.285-.302.675-.55.866-.55.191 0 .501-.18.69-.4.188-.22.521-.4.739-.4.219 0 .545-.225.725-.5.181-.275.439-.5.574-.5.136 0 .454-.18.708-.4.254-.22.615-.4.804-.4.188 0 .557-.166.819-.37a3.286 3.286 0 0 1 1.026-.503c.302-.074.527-.245.5-.381-.032-.159.218-.248.712-.252.723-.006 1.235-.377 1.014-.734-.054-.088.23-.16.632-.16.562 0 .755-.092.835-.4.058-.22.262-.4.454-.4.193 0 .579-.18.859-.4.279-.22.604-.4.722-.4s.361-.225.541-.5c.181-.275.494-.5.697-.5.203 0 .53-.164.727-.365.197-.201.651-.482 1.008-.625.358-.142.65-.33.65-.418 0-.088.262-.218.583-.288.321-.071.629-.246.684-.39.055-.145.355-.326.667-.404.311-.079.727-.315.924-.526.197-.211.518-.384.715-.384.196 0 .569-.225.827-.5s.631-.5.828-.5c.197 0 .459-.189.582-.419.18-.336.35-.396.857-.303.754.137 1.339-.123.904-.403-.187-.121-.025-.206.529-.275.633-.079.8-.183.8-.5 0-.32.133-.4.665-.4.375 0 .768-.138.9-.317.129-.174.505-.462.835-.639l1.25-.671c.358-.191.65-.458.65-.594 0-.136.275-.308.612-.382.567-.124 2.575-1.327 3.82-2.287.292-.225.61-.41.705-.41.096 0 .328-.18.517-.4.217-.254.59-.4 1.021-.4.524 0 .704-.097.79-.426.086-.331.224-.404.624-.327.356.068.667-.046 1.022-.375.28-.259.73-.472.999-.472.361 0 .49-.108.49-.412 0-.226.068-.372.15-.323.277.163 1.05-.249 1.05-.559 0-.207.194-.306.598-.306.382 0 .689-.145.848-.4.138-.22.417-.4.621-.4.204 0 .418-.18.475-.4.098-.375.219-.427 1.103-.48.19-.011.487-.222.661-.47.174-.247.488-.45.698-.45.209 0 .541-.172.738-.383.468-.501 3.032-1.857 3.253-1.72.094.058.204.006.245-.117.048-.143.338-.073.817.196.409.229.743.364.743.298 0-.065.158.076.35.314.193.238.494.454.67.48.399.058 1.175.561 1.891 1.225.301.279.712.507.914.507.201 0 .514.226.694.501.242.369.482.49.906.458.402-.031.672.09.888.398.17.244.474.443.675.443.201 0 .412.18.47.4.069.264.273.4.599.4.289 0 .617.185.79.445.219.33.461.432.941.395.505-.038.67.04.753.355.075.289.272.405.684.405.331 0 .725.171.921.4.189.22.506.4.705.4.199 0 .41.127.47.282.059.155.343.341.63.413.287.072.783.35 1.101.618.318.268.79.54 1.049.605.259.065.519.245.578.4.06.155.274.282.476.282.202 0 .672.225 1.045.5.373.275.795.5.939.5.143 0 .261.087.261.194 0 .107.284.268.632.358.378.098.654.309.685.524.073.495.152.547.862.567.384.011.621.123.621.292 0 .15.247.383.55.516.303.134.674.411.825.616.203.275.429.342.857.257.487-.098.611-.037.769.38.144.379.334.496.8.496.359 0 .659.124.727.3.063.165.317.3.564.3.247 0 .692.225.989.5.297.275.642.5.766.5.125 0 .413.174.64.387.227.213.653.431.947.484.293.053.721.284.95.513.229.229.529.416.668.416.138 0 .364.18.502.4.137.22.393.4.569.4.176 0 .587.225.913.5.327.275.713.5.858.5.145 0 .315.135.378.3.064.165.291.3.505.3.598 0 1.023.214 1.023.514 0 .315.596.67.925.551.123-.045.272.102.331.327.071.272.271.408.602.408.327 0 .531.136.6.4.081.309.273.4.842.4.581 0 .761.089.847.419.089.339.218.398.672.307.439-.088.648-.004.951.381.232.296.593.493.902.493.308 0 .599.159.727.398.117.219.278.388.357.376.468-.07.874.075 1.206.432.208.223.56.441.783.483.222.043.634.288.914.545.785.718 1.684 1.366 1.893 1.366.104 0 .425-.203.714-.45 1.083-.931 1.707-1.35 2.008-1.35.171 0 .471-.17.668-.377.197-.207.657-.44 1.022-.519.364-.078.71-.264.767-.413.057-.149.422-.376.81-.504.388-.129.876-.404 1.085-.613.258-.258.534-.341.861-.259.395.099.492.037.547-.347.057-.402.18-.468.866-.468.651 0 .789-.065.741-.35-.047-.279.086-.35.657-.35.559 0 .751-.098.882-.45.128-.345.325-.45.843-.45.55 0 .689-.085.741-.45.052-.369.19-.45.769-.45.5 0 .733-.101.803-.35.054-.193.739-.665 1.521-1.05 2.25-1.107 2.833-1.432 2.978-1.662.075-.117.39-.245.7-.283.311-.038.688-.246.839-.462.151-.216.431-.393.621-.393.191 0 .589-.225.886-.5.312-.289.779-.5 1.106-.5.403 0 .597-.118.674-.411.088-.339.241-.4.873-.35.627.05.761-.002.738-.289-.021-.267.126-.35.617-.35.892 0 .978-.17.35-.69-.565-.467-3.317-2.11-3.535-2.11-.122 0-2.878-1.692-3.916-2.405-.282-.193-1.082-.653-1.778-1.023-1.437-.762-1.57-.842-2.81-1.681-.495-.335-1.53-.919-2.3-1.298-.77-.38-1.76-.926-2.2-1.215-.44-.288-1.16-.689-1.6-.889-.44-.201-1.385-.743-2.1-1.204a38.177 38.177 0 0 0-2.2-1.316 28.414 28.414 0 0 1-1.4-.792c-1.276-.799-5.249-3.065-5.8-3.308-.442-.194-4.786-2.647-5.6-3.162a75.387 75.387 0 0 1-1.271-.825c-.634-.424-1.698-1.052-3.458-2.039-.644-.361-1.531-.873-1.971-1.136-.44-.264-1.07-.617-1.4-.786-.33-.169-1.23-.666-2-1.105a80.09 80.09 0 0 0-1.9-1.057 23.554 23.554 0 0 1-1.495-.909c-.548-.357-1.07-.65-1.16-.65-.09 0-.657-.315-1.258-.7-.602-.385-1.171-.7-1.263-.7-.093 0-.509-.27-.924-.6-.415-.33-.821-.6-.901-.6-.127 0-.981-.485-3.661-2.08a85.41 85.41 0 0 0-2.538-1.377c-2.27-1.192-4.173-2.298-4.639-2.696-.187-.159-.817-.527-1.4-.818-.584-.291-1.332-.719-1.661-.951-.33-.233-1.301-.818-2.158-1.3a129.624 129.624 0 0 1-2.3-1.324A44.916 44.916 0 0 0 203 91.742a33.191 33.191 0 0 1-2.146-1.205c-.465-.295-.87-.533-.9-.529-.03.005-.584.229-1.232.498m-84.92 110.858c.003 59.406-.053 56.036.924 56.036.466 0 .674.093.674.3 0 .165.113.307.25.315.664.041 1.025.19 1.379.57.213.228.547.415.743.415.196 0 .552.225.791.5s.609.5.822.5c.214 0 .445.18.515.4.07.22.285.4.479.4.193 0 .563.225.821.5.286.305.691.5 1.035.5.349 0 .565.106.565.278 0 .153.243.34.541.414.298.075.659.304.803.51.144.205.553.401.909.436.394.038.627.162.596.316-.029.14.161.336.422.435.261.099.529.322.595.496.067.173.297.315.511.315.594 0 1.023.213 1.023.508 0 .322.626.546 1.06.38.187-.072.46.047.672.295.196.229.565.417.819.417s.512.131.573.29c.061.16.436.398.832.529.397.131.901.405 1.12.609.22.205.521.372.67.372.149 0 .464.18.7.4.236.22.601.4.81.4.21 0 .427.175.483.389.062.235.35.443.731.526.347.077.753.314.903.529.167.237.42.352.648.293.246-.065.507.083.764.432 1.079 1.466 1.018 4.716 1.014-54.478-.004-55.251-.007-55.544-.742-55.652a.698.698 0 0 1-.525-.477c-.081-.309-.218-.386-.539-.302-.544.142-.993-.024-.993-.366 0-.145-.304-.363-.676-.486-.372-.123-.835-.4-1.031-.616-.195-.215-.493-.392-.661-.392-.168 0-.495-.178-.726-.395-.231-.217-.62-.425-.863-.462-.244-.037-.627-.265-.851-.505-.224-.241-.629-.438-.9-.438-.301 0-.492-.115-.492-.296 0-.163-.218-.351-.485-.418a1.972 1.972 0 0 1-.831-.504c-.19-.21-.592-.382-.892-.382-.365 0-.657-.17-.882-.513-.282-.43-.435-.491-.943-.38-.55.121-.594.094-.473-.287.105-.33.048-.42-.264-.42-.599 0-1.03-.212-1.03-.506 0-.144-.292-.325-.65-.401-.358-.077-.809-.306-1.002-.51-.27-.284-.464-.329-.825-.192-.498.189-.923-.051-.923-.522 0-.138-.309-.309-.687-.38-.378-.071-.842-.3-1.031-.509-.189-.209-.51-.38-.713-.38-.203 0-.54-.171-.749-.38-.209-.209-.558-.437-.774-.505-.216-.069-.554-.303-.751-.52-.196-.217-.571-.395-.832-.395-.262 0-.526-.132-.588-.293-.062-.162-.509-.516-.994-.786l-.881-.493.002 54.536m170.912-53.65c-.173.173-.314.398-.314.5 0 .102-.254.186-.564.186-.352 0-.727.188-.999.5-.239.275-.595.5-.791.5-.197 0-.511.18-.7.4-.188.22-.512.4-.72.4a.914.914 0 0 0-.618.29c-.132.159-.548.391-.926.516-.377.124-.778.399-.891.61-.149.28-.421.384-.998.384-.552 0-.793.086-.793.284 0 .159-.287.345-.65.422-.357.076-.785.257-.95.402-.166.145-.548.358-.85.473-.303.115-.55.344-.55.508 0 .166-.118.253-.266.197-.391-.151-1.345.265-1.285.56.03.149-.193.282-.541.321-.535.061-1.255.513-2.125 1.334-.174.164-.551.299-.838.299-.287 0-.64.165-.784.368-.143.202-.506.428-.805.502-.3.074-.64.314-.757.532-.128.239-.419.398-.727.398-.283 0-.782.225-1.108.5-.327.275-.72.5-.872.5-.153 0-.374.18-.492.4-.142.266-.419.4-.826.4-.436 0-.64.111-.712.386-.127.482-.583.67-1.037.427-.191-.102-.454-.119-.585-.038-.257.159-.372 109.849-.116 110.516.178.463.932.308 1.173-.241.11-.25.377-.451.6-.453.497-.004.96-.281.87-.519-.037-.098.182-.207.487-.242.318-.036.691-.271.873-.55.188-.286.512-.486.789-.486.259 0 .562-.173.675-.384.113-.211.476-.443.807-.516.331-.072.602-.218.602-.323 0-.105.395-.361.878-.568.483-.207.938-.473 1.012-.592.073-.12.267-.217.43-.217.163 0 .495-.184.736-.41.279-.259.597-.37.869-.302.431.109.987-.31.74-.556-.133-.134.033-.171.935-.21a.78.78 0 0 0 .697-.472c.139-.316.369-.45.769-.45.403 0 .602-.118.676-.4.058-.22.217-.4.354-.4.138 0 .465-.166.727-.37a3.28 3.28 0 0 1 1.027-.503c.303-.074.55-.266.55-.427 0-.161.218-.347.485-.414s.641-.294.831-.504c.19-.21.484-.382.652-.382.168 0 .516-.197.773-.438.256-.241.667-.468.913-.504.245-.036.558-.216.696-.399.137-.184.443-.364.68-.4.237-.036.637-.289.891-.562.253-.274.635-.497.848-.497.214 0 .44-.135.503-.3.072-.186.376-.3.799-.3.615 0 .695-.065.794-.65.146-.864.17-108.931.025-109.167-.173-.279-.626-.219-.976.131" fill="#3c84bc"/><path d="M199.001 89.499c-.137.165-.801.598-1.475.963s-2.486 1.415-4.026 2.333c-1.54.919-3.925 2.296-5.3 3.062a663.003 663.003 0 0 0-4.653 2.617 468.33 468.33 0 0 1-3.276 1.85c-.617.344-1.268.724-1.447.847-1.172.802-1.952 1.291-2.311 1.447-.227.099-.998.537-1.713.975-.715.437-1.75 1.02-2.3 1.296-.55.276-1.45.77-2 1.099-.55.328-1.135.658-1.3.733-.579.265-4.109 2.339-4.9 2.88-.44.3-1.25.787-1.8 1.082-.55.294-1.54.855-2.2 1.245-.66.391-1.74 1.005-2.4 1.365-.66.359-1.65.933-2.2 1.274-.55.342-1.54.88-2.2 1.196-.66.317-2.4 1.312-3.867 2.211-2.73 1.675-7.114 4.214-9.433 5.463a94.931 94.931 0 0 0-3.176 1.832c-1.031.622-1.933 1.131-2.004 1.131-.071 0-.58.297-1.131.66-1.106.728-5.822 3.444-9.089 5.234-1.155.633-2.226 1.253-2.38 1.378-.155.125-.553.318-.885.428-.82.271-.879.615-.169.982.549.284.597.28.688-.065.053-.204.535-.617 1.071-.918.536-.301 1.712-.987 2.612-1.523.9-.537 1.722-.976 1.826-.976.103 0 .306-.142.449-.315.144-.173.582-.489.975-.702.392-.213.848-.47 1.013-.57a209.17 209.17 0 0 1 1.959-1.148c.913-.531 1.993-1.163 2.4-1.405.408-.243.876-.497 1.041-.565.165-.068.435-.205.6-.304.165-.1 1.02-.552 1.9-1.005.88-.453 1.886-1.04 2.237-1.305.35-.265.726-.481.836-.481.188 0 1.737-.878 2.798-1.586.601-.4 1.352-.851 3.667-2.199 1.024-.596 2.077-1.249 2.339-1.45.262-.201.604-.365.758-.365.155 0 .475-.18.711-.4.236-.22.549-.4.696-.4.146 0 .622-.225 1.058-.5.436-.275.83-.5.876-.5.046 0 .655-.36 1.354-.8.698-.441 1.466-.886 1.705-.99.239-.104 1.229-.678 2.2-1.277 1.986-1.225 8.803-5.133 8.952-5.133.084 0 3.325-1.888 6.383-3.719.533-.32 1.478-.884 2.1-1.255.621-.371 1.4-.844 1.73-1.051.33-.207.877-.506 1.216-.664.339-.158.732-.428.874-.599.143-.172.39-.312.55-.312.159 0 .907-.36 1.66-.8.753-.44 1.436-.8 1.517-.8.082 0 .597-.288 1.145-.64a38.527 38.527 0 0 1 1.555-.95 137.378 137.378 0 0 0 4.483-2.645c1.988-1.238 3.282-1.965 3.497-1.965.112 0 .203-.079.203-.176 0-.096.293-.293.65-.437.358-.145.93-.472 1.273-.728.342-.256 1.175-.689 1.851-.964l1.228-.499.849.539c.467.297 1.434.84 2.149 1.207.715.367 1.634.867 2.042 1.112.408.245 1.443.841 2.3 1.324.857.482 1.828 1.067 2.158 1.3.329.232 1.077.66 1.661.951.583.291 1.213.659 1.4.818.466.398 2.369 1.504 4.639 2.696a85.41 85.41 0 0 1 2.538 1.377c2.68 1.595 3.534 2.08 3.661 2.08.08 0 .486.27.901.6.415.33.831.6.924.6.092 0 .661.315 1.263.7.601.385 1.168.7 1.258.7.09 0 .612.293 1.16.65.547.358 1.22.766 1.495.909.275.142 1.13.618 1.9 1.057.77.439 1.67.936 2 1.105.33.169.96.522 1.4.786.44.263 1.327.775 1.971 1.136 1.76.987 2.824 1.615 3.458 2.039.314.21.886.581 1.271.825.814.515 5.158 2.968 5.6 3.162.551.243 4.524 2.509 5.8 3.308.275.173.905.529 1.4.792.495.263 1.485.855 2.2 1.316.715.461 1.66 1.003 2.1 1.204.44.2 1.16.601 1.6.889.44.289 1.43.835 2.2 1.215.77.379 1.805.963 2.3 1.298 1.24.839 1.373.919 2.81 1.681.696.37 1.496.83 1.778 1.023 1.038.713 3.794 2.405 3.916 2.405.228 0 2.984 1.654 3.584 2.151.496.411.622.443.8.201.117-.158.347-.335.512-.393.19-.067-.102-.295-.8-.623-1.038-.489-1.831-.925-7.7-4.237-1.32-.744-2.67-1.493-3-1.664-.33-.17-.943-.557-1.362-.859-.418-.302-1.029-.608-1.356-.68-.328-.072-.738-.348-.912-.613-.174-.266-.406-.483-.517-.483-.111 0-1.023-.482-2.027-1.071a215.947 215.947 0 0 0-4.526-2.545c-1.485-.811-3.24-1.808-3.9-2.216-1.79-1.105-6.618-3.922-8.1-4.726a240.58 240.58 0 0 1-3.4-1.902 178.228 178.228 0 0 0-3-1.679 43.424 43.424 0 0 1-1.931-1.121c-.567-.352-1.33-.82-1.695-1.04-.365-.22-.981-.595-1.369-.833a39.556 39.556 0 0 0-1.69-.96 81.382 81.382 0 0 1-2.1-1.175c-.613-.357-1.385-.798-1.715-.981a360.72 360.72 0 0 1-3.728-2.118c-.51-.293-2.379-1.388-4.152-2.433-5.667-3.339-6.504-3.812-10.066-5.691a36.051 36.051 0 0 1-2.687-1.61c-.738-.494-1.453-.899-1.589-.899-.136 0-.502-.213-.813-.473-.311-.26-1.015-.711-1.565-1.002-1.314-.695-2.09-1.148-2.695-1.576-.606-.428-1.273-.449-1.604-.05m.799 31.113c0 .116-.085.159-.188.095-.234-.144-2.782 1.188-3.27 1.71-.41.439-.23.52.242.108.64-.556 2.733-1.524 3.298-1.525.536 0 3.324 1.448 4.168 2.165.193.163.35.205.35.093 0-.252-1.519-1.323-1.97-1.389-.181-.026-.487-.243-.68-.481-.192-.238-.35-.379-.35-.314 0 .066-.318-.059-.706-.277-.813-.457-.894-.474-.894-.185m-4.804 2.493c-.384.462-.156.509.376.078.322-.261.377-.383.175-.383-.164 0-.412.137-.551.305m-1.425.629c-.182.048-.376.263-.432.477-.098.377-.083.378.48.046.319-.189.581-.414.581-.5 0-.164-.086-.167-.629-.023m13.346.838c-.052.085.176.315.508.511.599.354.601.353.343-.06-.291-.465-.706-.685-.851-.451m-14.897.478-.277.45.479-.398c.263-.219.516-.421.561-.45.046-.029-.045-.052-.202-.052-.156 0-.409.203-.561.45m-1.476.741c-.1.382.181.293 1.039-.33.046-.034-.146-.061-.426-.061-.338 0-.545.132-.613.391m17.656-.315c0 .041.135.187.3.324.246.204.3.19.3-.076 0-.178-.135-.324-.3-.324-.165 0-.3.034-.3.076m-18.8 1.091c0 .237.055.239.35.014.192-.147.383-.288.423-.314.04-.025-.118-.031-.35-.014-.233.018-.423.159-.423.314m20.017-.315c.046.029.299.231.562.45l.479.398-.236-.45c-.13-.247-.383-.45-.562-.45-.18 0-.289.023-.243.052m-21.267.964c-.192.112-.35.303-.35.425 0 .129.145.095.35-.084.193-.168.485-.354.65-.415.267-.098.267-.111 0-.12-.165-.005-.457.082-.65.194m22.85-.027c0 .104.968.7 2.15 1.325s3.693 2.011 5.578 3.081c2.23 1.265 3.412 1.836 3.382 1.633-.025-.172-.33-.386-.678-.476-.348-.09-.632-.251-.632-.358 0-.107-.118-.194-.261-.194-.144 0-.566-.225-.939-.5s-.843-.5-1.045-.5c-.202 0-.416-.127-.476-.282-.059-.155-.319-.335-.578-.4-.259-.065-.731-.337-1.049-.605-.318-.268-.814-.546-1.101-.618-.287-.072-.571-.258-.63-.413-.06-.155-.271-.282-.47-.282-.199 0-.516-.18-.705-.4-.196-.229-.59-.4-.921-.4-.41 0-.609-.116-.683-.4-.105-.4-.942-.587-.942-.211m-24.667.744c-.367.368-.124.654.367.431.275-.126.5-.304.5-.396 0-.199-.675-.226-.867-.035m-1.853 1.016a4.302 4.302 0 0 1-.688.55c-.186.11-.598.374-.916.586-.317.211-1.048.689-1.626 1.061-1.832 1.178-1.142.878 1.8-.784 3.355-1.895 3.174-1.762 2.398-1.762-.341 0-.776.157-.968.349m-5.33 3.189c-.192.05-.35.222-.35.381 0 .268.393.115 1.183-.458.114-.083-.405-.035-.833.077m43.492 1.748.587.365c.501.313.524.311.433-.035-.06-.229-.279-.366-.587-.366-.27 0-.465.016-.433.036m-48.109.847c-.223.224-.149.467.143.467.151 0 .387-.135.524-.3.261-.314-.363-.47-.667-.167m-51.966.966c.343.255.526.288.69.124.164-.164.137-.223-.101-.223-.178 0-.488-.056-.69-.125-.26-.088-.231-.023.101.224m103.353-.131c-.064.103.105.333.375.511.478.312.488.309.33-.118-.182-.49-.526-.682-.705-.393m-52.779.253c.158.158.325.16.59.006.323-.188.296-.216-.221-.221-.43-.004-.53.054-.369.215m103.589.084c.095.249.177.259.443.057.18-.137.365-.274.41-.305.046-.032-.154-.057-.443-.057-.391 0-.497.079-.41.305m-152.73.451c0 .085 1.553.956 3.45 1.935 1.897.978 3.878 2.031 4.4 2.339.523.308.95.483.95.389 0-.094-.264-.28-.586-.413-.322-.133-.634-.369-.693-.524-.06-.155-.284-.282-.499-.282-.215 0-.664-.23-.998-.51-.334-.281-.655-.506-.715-.5-.463.044-.708-.042-1.109-.39-.254-.22-.569-.4-.701-.4-.133 0-.483-.225-.78-.5-.297-.275-.738-.5-.981-.5s-.554-.18-.692-.4c-.238-.382-1.046-.57-1.046-.244m47.4.244c-.118.22-.375.4-.572.4-.197 0-.57.225-.828.5s-.631.5-.827.5c-.197 0-.518.173-.715.384-.197.211-.613.447-.924.526-.312.078-.612.259-.667.404-.055.144-.363.319-.684.39-.321.07-.583.2-.583.288 0 .088-.292.276-.65.418-.357.143-.811.424-1.008.625-.197.201-.531.365-.743.365-.212 0-.486.188-.609.418-.211.394.916-.098 1.91-.835.11-.082 1.977-1.132 4.148-2.334 2.171-1.203 3.889-2.246 3.817-2.318-.268-.267-.858-.118-1.065.269m103.658 0c-.074.281-.273.4-.671.4-.327 0-.794.211-1.106.5-.297.275-.695.5-.886.5-.19 0-.47.177-.621.393-.151.216-.528.424-.839.462-.31.038-.625.166-.7.283-.145.23-.728.555-2.978 1.662-.791.389-1.468.861-1.524 1.061-.087.309-.056.323.21.1.421-.352 3.501-2.023 7.193-3.901 1.67-.849 2.992-1.615 2.938-1.702-.199-.322-.913-.152-1.016.242m-47.558.2c.33.219.67.398.756.399.166.001 4.789 2.559 5.675 3.14.521.341.522.34.248-.098-.151-.243-.389-.441-.527-.441-.139 0-.439-.187-.668-.416-.229-.229-.657-.46-.95-.513a2.212 2.212 0 0 1-.947-.484c-.227-.213-.515-.387-.64-.387-.124 0-.469-.225-.766-.5-.297-.275-.742-.5-.989-.5s-.501-.135-.564-.3c-.065-.168-.361-.299-.672-.299l-.556.002.6.397m7.3 4.01c.891.604 1.124.676.719.219-.21-.236-.525-.428-.7-.426-.28.003-.282.028-.019.207m-100 1.532c.165.061.458.247.65.415.314.274.35.273.35-.005 0-.33-.419-.562-.966-.536-.274.013-.28.035-.034.126m102.9.229c.33.202.633.281.674.175.097-.251-.367-.539-.874-.542-.327-.002-.29.066.2.367m26.5.06c0 .426.005.426.45.052.247-.208.487-.402.533-.431.046-.029-.156-.052-.45-.052-.412 0-.533.097-.533.431m-127.556.538c-.184.117-.111.227.265.399.454.206.513.194.456-.099-.078-.401-.369-.523-.721-.3m126.019.181a4.93 4.93 0 0 1-.218.521c-.052.094.141.016.429-.172.287-.189.473-.423.412-.521-.179-.29-.489-.204-.623.172m-104.196.95c0 .371.124.37.621-.006.375-.284.37-.294-.116-.294-.316 0-.505.113-.505.3m102.586.078c.028.372.278.302 1.13-.317.046-.034-.196-.061-.537-.061-.486 0-.615.082-.593.378m-121.518.375c-.274.062-.149.195.5.533l3.421 1.782c1.406.732 2.78 1.478 3.054 1.657.438.287.483.289.377.014-.065-.171-.383-.403-.706-.516-.322-.112-.64-.343-.705-.514-.065-.17-.327-.309-.582-.309-.255 0-.724-.219-1.042-.487-.318-.268-.833-.551-1.144-.629-.311-.078-.733-.309-.937-.513-.204-.204-.551-.371-.771-.371-.22 0-.4-.087-.4-.193 0-.279-.639-.551-1.065-.454m119.998-.02c-.479.479-.121.883.472.533.521-.308.555-.377.25-.498-.474-.187-.565-.191-.722-.035m-102.757.217a1.173 1.173 0 0 0-.001.296c.013.081-.224.207-.526.281-.302.074-.764.3-1.026.503-.262.204-.631.37-.819.37-.189 0-.55.18-.804.4-.254.22-.572.4-.708.4-.135 0-.397.23-.581.511-.334.51-.334.51.727-.11a71.658 71.658 0 0 1 2.812-1.513c.963-.491 1.75-.981 1.75-1.09 0-.228-.788-.274-.824-.048m85.192.17c.472.33.773.271.54-.107-.072-.117-.326-.213-.564-.213h-.433l.457.32m1.281.446c-.173.11-.034.262.45.493.759.362.922.203.335-.328-.416-.377-.443-.383-.785-.165m14.774.211c-.207.207-.694.481-1.082.61-.388.128-.753.355-.81.504-.057.149-.403.335-.767.413-.365.079-.825.312-1.022.519-.197.207-.523.377-.725.377-.203 0-.485.141-.628.313-.143.172-.522.449-.843.615-.321.166-.532.353-.469.415.062.063.233.015.378-.106.146-.121 1.82-1.021 3.72-2.001 2.354-1.214 3.349-1.822 3.124-1.909-.454-.174-.451-.175-.876.25m-13.406.696c.046.041 1.163.683 2.483 1.429 1.32.745 2.625 1.486 2.9 1.645l.5.29-.472-.368a18.81 18.81 0 0 1-.976-.835c-.276-.257-.685-.502-.907-.545-.223-.042-.575-.26-.783-.483-.332-.357-.738-.502-1.206-.432-.079.012-.24-.157-.357-.376-.13-.243-.419-.398-.739-.398-.29 0-.489.033-.443.073m41.705.441c-.065.171-.204.259-.307.195-.231-.142-.481.222-.325.474.148.241.119 108.311-.03 109.195-.12.719.011.729.789.062.391-.336.563-109.885.173-110.127-.099-.061-.234.029-.3.201M113 201.589v54.789l.515.561.515.561-.113-.8c-.062-.44-.114-25.347-.115-55.35-.002-54.416-.003-54.55-.402-54.55s-.4.133-.4 54.789m2.6-53.584c0 .114.139.261.309.326.469.18.524-.014.082-.29-.248-.155-.391-.168-.391-.036m35.314.509c-.575.576-.069.428.869-.253.046-.034-.06-.061-.235-.061-.176 0-.461.141-.634.314m-33.542.474c.26.227.567.412.683.412.246 0 .235-.01-.555-.472l-.6-.352.472.412M282.6 148.9c-.137.165-.388.3-.558.3-.17 0-.255.053-.19.118.189.19.901-.106 1.023-.426.144-.375.04-.372-.275.008m-135.383.161c.855.621 1.19.745.943.349-.141-.226-.43-.41-.641-.41-.212 0-.348.027-.302.061m2.297.253c-.575.576-.069.428.869-.253.046-.034-.06-.061-.235-.061-.176 0-.461.141-.634.314m-31.064.342c.044.134.359.336.7.449.341.113.784.348.985.523.314.274 1.738.769 1.465.51-.351-.332-3.214-1.68-3.15-1.482m162.45.158c-.399.255-.488.384-.264.385.299.001.964-.491.964-.713 0-.118-.019-.109-.7.328m-2.492 1.3c-1.476.773-1.61.886-1.057.886.421 0 .704-.129.84-.384.113-.211.514-.486.891-.61.378-.125.794-.357.926-.516.32-.385.341-.393-1.6.624m-156.608.371c0 .394.451.683.843.54.287-.105.245-.182-.25-.466-.456-.262-.593-.279-.593-.074m154 1.04-.5.292.5-.134c.557-.148.707-.242.583-.367-.046-.046-.308.048-.583.209m-149.28 1.422c-.215.215-.126.453.168.453.159 0 .338-.081.399-.179.127-.206-.387-.454-.567-.274m1.48.858c0 .114.139.261.309.326.469.18.524-.014.082-.29-.248-.155-.391-.168-.391-.036m143.3.195c-.068.11.011.2.176.2.165 0 .356-.09.424-.2.068-.11-.011-.2-.176-.2-.165 0-.356.09-.424.2M131 156.5c0 .165.146.3.324.3.266 0 .28-.054.076-.3-.137-.165-.283-.3-.324-.3-.042 0-.076.135-.076.3m137.6.031c-.48.252-.482.263-.062.266.241.002.498-.093.57-.21.203-.328.041-.346-.508-.056m-136.043.906c.131.131.441.264.69.297.439.057.437.05-.047-.231-.61-.352-.966-.389-.643-.066m1.524.713c.21.248.525.443.7.434.271-.013.274-.032.019-.126-.165-.061-.48-.256-.7-.434-.397-.321-.397-.32-.019.126m131.319.074c-.69.37-.692.375-.157.376.338 0 .624-.151.757-.4.118-.22.188-.389.157-.375a37.65 37.65 0 0 0-.757.399m-129.912.763c.198.219.664.498 1.036.621s.676.341.676.486c0 .339.553.552.912.351.192-.107-.227-.418-1.354-1.006-1.082-.564-1.509-.717-1.27-.452m128.818-.197c-.065.105-.722.488-1.461.85-1.1.541-1.256.672-.859.729a.857.857 0 0 0 .799-.329c.173-.219.506-.454.739-.524.394-.118 1.282-.916 1.019-.916-.066 0-.172.086-.237.19m-125.567 1.999c.056.213.289.416.518.45.735.108.738.401.742 55.652.004 59.236.066 55.946-1.021 54.469-.243-.331-.513-.496-.697-.425-.379.146.874 1.042 1.559 1.116l.46.049V161.391l-.831-.496c-.769-.458-.824-.466-.73-.106m121.8 0c-.444.284-.497.384-.25.479.444.17.855-.033.973-.482.121-.466.008-.466-.723.003m-1.24 55.511c0 30.14.023 42.44.051 27.334.028-15.106.028-39.766 0-54.8-.028-15.034-.051-2.674-.051 27.466m-145.082 41.179c.08.075.603.365 4.068 2.256 1.807.987 1.74.963 1.587.565-.063-.165-.286-.3-.495-.3-.209 0-.575-.225-.814-.5s-.595-.5-.791-.5c-.196 0-.53-.187-.743-.415-.354-.38-.715-.529-1.379-.57-.137-.008-.25-.15-.25-.315 0-.204-.204-.3-.633-.3-.349 0-.596.035-.55.079m169.855.221c-.063.165-.289.3-.503.3-.213 0-.595.223-.848.497-.254.273-.654.526-.891.562a1.197 1.197 0 0 0-.68.4c-.138.183-.451.363-.696.399-.246.036-.657.263-.913.504-.257.241-.605.438-.773.438-.168 0-.462.172-.652.382-.19.21-.564.437-.831.504s-.485.217-.485.334c0 .275-.14.343 3.213-1.546a890.313 890.313 0 0 1 4.187-2.347c1.236-.686 1.268-.721.644-.724-.401-.002-.701.114-.772.297m-162.055 4.157c.046.031.241.177.433.324.3.229.35.221.35-.057 0-.199-.167-.324-.433-.324-.239 0-.396.025-.35.057m.983.572c.469.433 1.177.745 1.073.472-.064-.166-.189-.301-.278-.301-.089 0-.327-.059-.529-.132-.201-.072-.321-.09-.266-.039m152.228.578c-.26.216-.597.393-.75.393-.153 0-.278.09-.278.2 0 .295.109.258 1.151-.396.522-.328.814-.595.649-.594-.165.002-.512.18-.772.397m-150.339.575c.276.447.879.64.825.265-.028-.191-.255-.377-.504-.414-.286-.042-.405.013-.321.149m147.848 1.036c-.105.402-.094.405.277.069.459-.415.475-.487.109-.487-.152 0-.326.188-.386.418m-1.437.535c-.419.308-.33.669.099.401.398-.248.538-.557.251-.551-.082.002-.24.069-.35.15m-142.171.8c-.052.084.595.508 1.438.943 2.373 1.225 4.695 2.537 5.106 2.887.346.294.368.289.299-.074-.041-.215-.274-.44-.519-.5-.244-.06-.627-.266-.851-.459-.224-.192-.524-.35-.667-.35-.143 0-.439-.167-.659-.372-.219-.204-.723-.478-1.12-.609-.396-.131-.771-.369-.832-.529-.061-.159-.319-.29-.573-.29-.254 0-.616-.18-.805-.4-.357-.417-.656-.508-.817-.247m140.317.247c-.236.22-.563.4-.726.4-.163 0-.357.097-.43.217-.074.119-.529.385-1.012.592-.483.207-.878.463-.878.568 0 .105-.271.251-.602.323-.331.073-.694.305-.807.516-.113.211-.416.384-.675.384-.289 0-.605.207-.822.537l-.352.538.556-.438c.306-.24.642-.437.748-.437.106 0 .431-.169.723-.375s1.423-.844 2.514-1.419c2.388-1.257 2.717-1.457 2.717-1.654 0-.288-.525-.151-.954.248M136.8 270.277c0 .042.228.227.508.41.496.325.501.323.252-.077-.216-.345-.76-.583-.76-.333m125.309.109c-.202.326.181.389.581.096.377-.275.376-.282-.04-.282-.235 0-.478.084-.541.186m-1.309.938c0 .278.05.286.35.057.193-.147.388-.293.433-.324.046-.032-.111-.057-.35-.057-.266 0-.433.125-.433.324m-1.547.276c.035.375.172.509.547.537.275.02.354-.007.176-.06s-.424-.294-.547-.537c-.221-.435-.223-.434-.176.06" fill="#3484bc"/></g></svg>
