<?xml version="1.0" encoding="UTF-8"?> <!-- Generator: Adobe Illustrator 23.0.3, SVG Export Plug-In . SVG Version: 6.00 Build 0) --> <svg xmlns="http://www.w3.org/2000/svg" xmlns:xlink="http://www.w3.org/1999/xlink" id="Layer_1" x="0px" y="0px" viewBox="0 0 576 288" style="enable-background:new 0 0 576 288;" xml:space="preserve"> <style type="text/css"> .st0{fill:#1A1F28;} .st1{fill:#F2A91E;} .st2{opacity:0.4;fill:#72A8DA;} .st3{fill:#C56728;} .st4{fill:#EB8523;} .st5{fill:none;stroke:#1A1F28;stroke-width:9.8074;stroke-miterlimit:10;} .st6{fill:none;stroke:#1A1F28;stroke-width:13.0765;stroke-miterlimit:10;} .st7{fill:none;stroke:#1A1F28;stroke-width:9.8107;stroke-miterlimit:10;} </style> <g> <path class="st0" d="M33.2,161.66v29.06H13.23V97.07h39.94c21.62,0,37.18,12.67,37.18,32.22c0,12.81-6.89,22.86-17.76,28.23 l23.82,33.19H72.58l-20.52-29.06H33.2z M52.48,143.34c10.05,0,18.18-5.51,18.18-14.05c0-8.68-8.13-14.05-18.18-14.05H33.2v28.09 H52.48z"></path> <path class="st0" d="M163.64,162.62h-48.61c1.52,7.71,6.61,13.77,17.08,13.77c5.37,0,9.09-1.65,11.15-4.96h19.97 c-3.58,12.67-15.97,21.35-31.54,21.35c-21.21,0-35.53-15.29-35.53-34.98c0-20.38,14.18-35.12,34.98-35.12 c18.87,0,32.91,13.36,32.91,33.74C164.05,159.18,163.92,160.69,163.64,162.62z M115.16,151.33h29.88 c-1.1-8.26-6.06-12.81-13.77-12.81C122.05,138.52,116.95,143.89,115.16,151.33z"></path> <path class="st0" d="M243.4,124.75v65.97h-19.14v-3.86c-5.1,3.3-11.29,5.23-18.73,5.23c-18.18,0-32.91-15.15-32.91-34.29 c0-19.42,14.74-34.43,32.91-34.43c7.44,0,13.63,1.93,18.73,5.23v-3.86H243.4z M224.26,168.27V147.2 c-4.27-5.78-9.92-7.71-15.56-7.71c-10.05,0-17.08,8.54-17.08,18.32c0,9.64,7.02,18.04,17.08,18.04 C214.34,175.84,219.99,173.92,224.26,168.27z"></path> <path class="st0" d="M275.68,190.72h-19.14V97.05h19.14V190.72z"></path> <path class="st1" d="M337.87,115.25v75.47h-19.97v-75.47h-31.26V97.07h82.49v18.18H337.87z"></path> <g> <polygon class="st2" points="542.03,198.97 477.34,236.23 412.66,198.97 412.66,105.16 477.34,67.9 542.03,105.16 "></polygon> <polygon class="st3" points="436.52,215.57 438.55,121.01 477.55,141.14 475.23,235.42 "></polygon> <polygon class="st1" points="516.76,214.4 516.12,119.16 477.12,139.29 478.06,234.25 "></polygon> <polygon class="st4" points="476.06,94.62 440.01,117.1 480.32,138.42 514.05,117.88 "></polygon> <polygon class="st5" points="516.43,215.11 477.34,236.76 438.26,215.11 438.26,119.91 477.34,97.39 516.43,119.91 "></polygon> <polygon class="st6" points="560.45,190.3 477.34,238.18 394.23,190.3 394.23,94.55 477.34,46.67 560.45,94.55 "></polygon> <line class="st7" x1="476.97" y1="139.99" x2="476.97" y2="238.49"></line> <line class="st5" x1="477.26" y1="140.05" x2="560.9" y2="94.55"></line> <line class="st5" x1="477.26" y1="140.05" x2="394.41" y2="94.55"></line> <ellipse class="st0" cx="477.34" cy="244.57" rx="84.05" ry="8.49"></ellipse> <line class="st5" x1="476.21" y1="172.92" x2="437.97" y2="151.3"></line> <line class="st5" x1="476.21" y1="203.87" x2="437.97" y2="182.24"></line> <line class="st7" x1="477.11" y1="172.92" x2="515.36" y2="151.3"></line> <line class="st5" x1="477.11" y1="203.87" x2="515.36" y2="182.24"></line> </g> </g> </svg> 